<svg xmlns="http://www.w3.org/2000/svg" viewBox="0 0 120 120" fill="none">
  <!-- Outer back petals -->
  <path d="M60 75 Q20 60 15 30 Q35 45 60 75Z" fill="none" stroke="#d9634f" stroke-width="1.5" opacity="0.7"/>
  <path d="M60 75 Q100 60 105 30 Q85 45 60 75Z" fill="none" stroke="#d9634f" stroke-width="1.5" opacity="0.7"/>
  <path d="M60 75 Q10 55 8 20 Q32 38 60 75Z" fill="none" stroke="#d9634f" stroke-width="1.5" opacity="0.5"/>
  <path d="M60 75 Q110 55 112 20 Q88 38 60 75Z" fill="none" stroke="#d9634f" stroke-width="1.5" opacity="0.5"/>

  <!-- Lower petals -->
  <path d="M60 80 Q42 95 38 115 Q55 100 60 80Z" fill="none" stroke="#d9634f" stroke-width="1.5" opacity="0.7"/>
  <path d="M60 80 Q78 95 82 115 Q65 100 60 80Z" fill="none" stroke="#d9634f" stroke-width="1.5" opacity="0.7"/>

  <!-- Middle layer petals -->
  <path d="M60 70 Q28 58 22 28 Q44 46 60 70Z" fill="none" stroke="#d9634f" stroke-width="1.8" opacity="0.85"/>
  <path d="M60 70 Q92 58 98 28 Q76 46 60 70Z" fill="none" stroke="#d9634f" stroke-width="1.8" opacity="0.85"/>
  <path d="M60 72 Q40 60 42 35 Q53 52 60 72Z" fill="none" stroke="#d9634f" stroke-width="1.5" opacity="0.9"/>
  <path d="M60 72 Q80 60 78 35 Q67 52 60 72Z" fill="none" stroke="#d9634f" stroke-width="1.5" opacity="0.9"/>

  <!-- Tall center petals -->
  <path d="M60 72 Q50 40 60 8 Q70 40 60 72Z" fill="none" stroke="#d9634f" stroke-width="2"/>
  <path d="M60 72 Q42 42 48 12 Q58 42 60 72Z" fill="none" stroke="#d9634f" stroke-width="1.8"/>
  <path d="M60 72 Q78 42 72 12 Q62 42 60 72Z" fill="none" stroke="#d9634f" stroke-width="1.8"/>

  <!-- Radiating veins -->
  <line x1="60" y1="72" x2="60" y2="30" stroke="#d9634f" stroke-width="0.8" opacity="0.3"/>
  <line x1="60" y1="72" x2="38" y2="42" stroke="#d9634f" stroke-width="0.8" opacity="0.3"/>
  <line x1="60" y1="72" x2="82" y2="42" stroke="#d9634f" stroke-width="0.8" opacity="0.3"/>
</svg>
